# xmcd
#
# Track frame offsets:
#	150
#	13836
#	26314
#	40520
#	55253
#	68402
#	80485
#	91820
#	102928
#	123291
#	142714
#	161275
#	178298
#	197001
#	215584
#	235149
#	254343
#	272047
#	290512
#	309539
#	327178
#
# Disc length: 4608 seconds
#
# Revision: 1
# Processed by: cddbd v1.5.2PL0 Copyright (c) Steve Scherf et al.
# Submitted via: audiograbber 1.83.01
#
DISCID=1811fe15
DTITLE=Sidney Bechet - Shake 'em Up [CD1)
DYEAR=1999
DGENRE=Jazz
TTITLE0=Noble Sissle's Swingsters - Viper Mad
TTITLE1=Noble Sissle's Swingsters - Blackstick
TTITLE2=Noble Sissle's Swingsters - When The Sun Sets Down South
TTITLE3=Noble Sissle's Swingsters - Sweet Patootie
TTITLE4=Sidney Bechet and His Orchestra - What a Dream
TTITLE5=Sidney Bechet and His Orchestra - Hold Tight [I Want Some Sea Food, Mama]
TTITLE6=Sidney Bechet and His Orchestra - Jungle Drums
TTITLE7=Sidney Bechet and His Orchestra - Chant In The Night
TTITLE8=Port of Harlem Jazzmen - Blues For Tommy
TTITLE9=Port of Harlem Jazzmen - Summertime
TTITLE10=Port of Harlem Jazzmen - Pounding Heart Blues
TTITLE11=Josh White Trio - Careless Love
TTITLE12=Josh White Trio - Milk Cow Blues
TTITLE13=Bechet-Spanier Big Four - Four Or Five Times
TTITLE14=Bechet-Spanier Big Four - Sweet Lorraine
TTITLE15=Bechet-Spanier Big Four - Lazy River
TTITLE16=Bechet-Spanier Big Four - China Boy
TTITLE17=Bechet-Spanier Big Four - If I Could Be With You [One Hour Tonight]
TTITLE18=Bechet-Spanier Big Four - That's-a - Plenty
TTITLE19=Bechet-Spanier Big Four - Squeeze Me
TTITLE20=Bechet-Spanier Big Four - Sweet Sue, Just You
EXTD=YEAR: 1999
EXTT0=
EXTT1=
EXTT2=
EXTT3=
EXTT4=
EXTT5=
EXTT6=
EXTT7=
EXTT8=
EXTT9=
EXTT10=
EXTT11=
EXTT12=
EXTT13=
EXTT14=
EXTT15=
EXTT16=
EXTT17=
EXTT18=
EXTT19=
EXTT20=
PLAYORDER=
